# xmcd
# 
# Track frame offsets:
#     150
#     16762
#     34871
#     47431
#     62726
#     84830
#     103129
#     116071
#     135731
#     152678
# 
# Disc length: 2232
# 
# Revision: 1
# Processed by: cddbd v1.5.2PL0 Copyright (c) Steve Scherf et al.
# Submitted via: BonkEnc v1.0.15
# 
DISCID=7608b60a
DTITLE=OLIVER DRAGOJEVIĆ - Poeta
DYEAR=1978
DGENRE=Zabavni
TTITLE0=Poeta
TTITLE1=Molitva za magdalenu
TTITLE2=Ća Jje život vengo fantazija
TTITLE3=Zelenu granu s tugom žuta voća
TTITLE4=Ne žuri, djevojčice
TTITLE5=Oprosti mi, Pape
TTITLE6=Zbogom ostaj ljubavi
TTITLE7=Ti me vodi preko voda
TTITLE8=Fedra
TTITLE9=Majko, da li znaš
EXTD=
EXTT0=
EXTT1=
EXTT2=
EXTT3=
EXTT4=
EXTT5=
EXTT6=
EXTT7=
EXTT8=
EXTT9=
PLAYORDER=
